/* XPM */
static const char *juffed_px[] = {
/* columns rows colors chars-per-pixel */
"32 32 167 2",
"   c black",
".  c #604113",
"X  c #694614",
"o  c #704B16",
"O  c #714C15",
"+  c #714C16",
"@  c #714D16",
"#  c #724C15",
"$  c #724D15",
"%  c #724D16",
"&  c #754D16",
"*  c #774F16",
"=  c gray36",
"-  c #5D5D5C",
";  c gray37",
":  c #5F5F5F",
">  c #60605E",
",  c #7F7F71",
"<  c #89601F",
"1  c #8B611F",
"2  c #8D621F",
"3  c #8E631F",
"4  c #906520",
"5  c #926620",
"6  c #936720",
"7  c #956820",
"8  c #976920",
"9  c #986A21",
"0  c #9A6B21",
"q  c #9C6C21",
"w  c #9D6D21",
"e  c #9F6E21",
"r  c #A16F22",
"t  c #A27122",
"y  c #A37122",
"u  c #A47222",
"i  c #A67322",
"p  c #A87423",
"a  c #A97523",
"s  c #AB7623",
"d  c #AD7723",
"f  c #AE7823",
"g  c #B07924",
"h  c #B27B24",
"j  c #B37C24",
"k  c #B57D24",
"l  c #B77E25",
"z  c #B87F25",
"x  c #BA8025",
"c  c #BC8125",
"v  c #BD8225",
"b  c #BD8226",
"n  c #BF8326",
"m  c #80807D",
"M  c #81837E",
"N  c #81837F",
"B  c #8C8678",
"V  c #8A8A7D",
"C  c #908979",
"Z  c #918A79",
"A  c #968D7A",
"S  c #C18426",
"D  c #C28526",
"F  c #C48726",
"G  c #C58727",
"H  c #C68827",
"J  c #828480",
"K  c #828580",
"L  c #878984",
"P  c #868A84",
"I  c #878A84",
"U  c #878A85",
"Y  c #878B85",
"T  c #878B86",
"R  c #888A84",
"E  c #888A85",
"W  c #8B8E89",
"Q  c #8C8F8A",
"!  c #8E8E8B",
"~  c #8D918B",
"^  c #8E918C",
"/  c #91918D",
"(  c #97978A",
")  c #99998D",
"_  c #9B9B8E",
"`  c #989897",
"'  c #A1A195",
"]  c #A4A499",
"[  c #A4A49A",
"{  c #A8A89D",
"}  c #A3A3A0",
"|  c #A3A3A2",
" . c #AAAAA0",
".. c #AAAAA1",
"X. c #ABABA0",
"o. c #ABABA2",
"O. c #ACACA1",
"+. c #ACACA2",
"@. c #ADADA2",
"#. c #AEAEA3",
"$. c #A9ABA9",
"%. c #B6B6AC",
"&. c #B6B6AD",
"*. c #B7B7AD",
"=. c #B7B7AE",
"-. c #B8B8AE",
";. c #B8B8AF",
":. c #B9B9AF",
">. c #B9B9B0",
",. c #BABAB1",
"<. c #BCBCB3",
"1. c #C6C6BE",
"2. c #C3C3C3",
"3. c #C4C4C3",
"4. c gray77",
"5. c #C4C5C4",
"6. c #C5C5C4",
"7. c #C5C5C5",
"8. c #C6C6C5",
"9. c #C6C6C6",
"0. c #C7C7C6",
"q. c #C9C9C2",
"w. c #C8C8C7",
"e. c #D0D0CF",
"r. c #D0D0D0",
"t. c gray83",
"y. c #D5D5D5",
"u. c #D5D6D4",
"i. c gray84",
"p. c #D8D8D8",
"a. c #D9DBD9",
"s. c #DCDCDB",
"d. c gray87",
"f. c #E3E3E2",
"g. c #E6E6E5",
"h. c gray91",
"j. c #E9E9E8",
"k. c #E9E9E9",
"l. c #EAEAE9",
"z. c #EAEAEA",
"x. c #EBEBEA",
"c. c gray92",
"v. c #ECECEB",
"b. c #ECECEC",
"n. c #EDEDEC",
"m. c gray93",
"M. c #EEEEED",
"N. c #EEEEEE",
"B. c #EFEFEE",
"V. c #EFEFEF",
"C. c #F0F0EF",
"Z. c gray94",
"A. c #F1F1F1",
"S. c gray95",
"D. c #F3F3F3",
"F. c #F4F4F4",
"G. c #F6F6F6",
"H. c gray97",
"J. c #F8F8F8",
"K. c #F9F9F8",
"L. c #F9F9F9",
"P. c gray98",
"I. c #FBFBFB",
"U. c #FDFDFD",
"Y. c #FEFEFE",
"T. c gray100",
"R. c None",
/* pixels */
"R.R.R.R.R.R.R.R.R.R.R.R.: = = = = = = = R.R.R.R.R.R.R.R.R.R.R.R.",
"R.R.R.R.R.R.R.R.R.R.R.R.= ) _ _ _ _ ) = R.R.R.R.R.R.R.R.R.R.R.R.",
"R.R.R.R.R.R.R.R.R.> = = = V , , , , V = - = : R.R.R.R.R.R.R.R.R.",
"R.R.* $ $ $ o $ o = ' ] ] ] ( ( ( ( ] ] ] ' - o $ o $ o $ * R.R.",
"R.R.* G G H H H G = ,.O.O.O.O.O.O.O.@.@.@.<.= c H H H H n $ R.R.",
"R.R.o H H A T T T = q.>.;.;.=.=.=.=.&.=.%.6.: N T T A r H $ R.R.",
"R.R.o H G T T.T.T.: { O.O.O.O.O.O.{ O.{ { ] : C.T.T.T r H + R.R.",
"R.R.# G G T T.C.C.| : = = = = = = = = = : : ` g.B.T.T r H + R.R.",
"R.R.$ G G L T.B.C.C.f.p.p.p.p.p.p.p.p.p.p.p.s.M.C.T.L e G # R.R.",
"R.R.$ G G T T.B.C.C.C.C.C.C.C.C.C.C.C.C.C.B.B.B.B.T.T q G # R.R.",
"R.R.$ H n T T.C.C.C.C.C.C.C.C.C.C.C.C.C.C.B.B.B.M.T.T q H o R.R.",
"R.R.o H n T T.C.C.w.w.w.w.w.w.w.w.w.w.0.0.0.6.M.M.T.T 0 H $ R.R.",
"R.R.+ H b T T.C.C.C.C.C.C.C.C.C.C.C.B.B.M.M.M.M.b.T.T 0 H o R.R.",
"R.R.+ H z T T.C.C.C.C.C.C.C.C.B.B.B.M.B.M.M.M.c.c.T.E 8 H $ R.R.",
"R.R.$ H z E T.C.C.w.w.w.w.w.0.0.0.6.6.6.3.6.d.c.c.T.T 7 H o R.R.",
"R.R.+ H z E T.C.C.C.C.C.C.B.B.B.M.M.M.M.M.c.c.c.c.T.T 7 H $ R.R.",
"R.R.* H l T T.C.C.B.B.B.B.c.c.B.M.M.b.b.z.c.c.z.z.T.T 6 H $ R.R.",
"R.R.o H k T T.C.C.0.0.0.0.0.0.0.2.2.2.2.2.z.z.l.h.T.T 3 H $ R.R.",
"R.R.# G j L T.B.B.B.B.c.n.n.n.c.c.c.c.l.z.l.z.h.h.I.L 3 H + R.R.",
"R.R.o G j T T.M.B.B.B.c.B.c.c.c.c.c.l.l.z.h.h.h.h.J.L 2 H + R.R.",
"R.R.$ G g L T.M.B.0.2.2.2.2.2.2.2.r.h.l.h.h.h.h.b.J.T < H + R.R.",
"R.R.$ G g L T.M.c.c.n.n.c.c.c.c.l.l.l.h.h.h.z.Z.C.T.T < H + R.R.",
"R.R.$ H d L U.n.c.c.c.c.c.h.c.j.l.h.h.h.l.M.Z.F.C.p.L < H + R.R.",
"R.R.o H d L U.n.c.c.c.c.c.j.h.h.h.h.l.b.L L L L ~ L L < H + R.R.",
"R.R.+ H p T I.b.c.c.h.j.j.j.h.h.l.M.C.C.T i.i.p.r.~ T < G * R.R.",
"R.R.+ H p T J.l.c.c.j.j.h.h.h.b.M.C.F.K.L i.i.6.Q K T < G o R.R.",
"R.R.$ H p T J.l.c.c.h.c.h.c.b.C.F.J.J.F.~ t.$.T J ! L < G o R.R.",
"R.R.+ H r T F.C.C.C.C.C.C.G.G.J.J.T.T.t.T T N m / } L < G $ R.R.",
"R.R.$ H r Z E E T T T T T T T T T T T T L T T T L L B < G $ R.R.",
"R.  $ n H H H H G G G H G H G G G G G G H H G H H H H H n $     ",
"R.  X $ o $ * o $ o o * # # $ o o * # # + + + + + + $ + $ .     ",
"R.R.                                                          R."
};
